<svg viewBox="0 0 243.414 32" xmlns="http://www.w3.org/2000/svg" xmlns:xlink="http://www.w3.org/1999/xlink" width="243.414062" height="32.000000" fill="none" customFrame="#000000">
	<defs>
		<clipPath id="clipPath_0">
			<rect width="32.000000" height="32.000000" x="0.000000" y="0.000000" fill="rgb(255,255,255)" />
		</clipPath>
	</defs>
	<rect id="nav / logo" width="243.413849" height="32.000000" x="0.000000" y="0.000000" />
	<g id="Logo">
		<g id="Storefront" customFrame="url(#clipPath_0)">
			<rect id="Storefront" width="32.000000" height="32.000000" x="0.000000" y="0.000000" />
			<path id="Vector (Stroke)" d="M6 12.4502C6.55228 12.4502 7 12.8979 7 13.4502L7 26.0002L25 26.0002L25 13.4502C25 12.8979 25.4477 12.4502 26 12.4502C26.5523 12.4502 27 12.8979 27 13.4502L27 26.0002C27 26.5306 26.7893 27.0393 26.4142 27.4144C26.0391 27.7895 25.5304 28.0002 25 28.0002L7 28.0002C6.46957 28.0002 5.96086 27.7895 5.58579 27.4144C5.21071 27.0393 5 26.5306 5 26.0002L5 13.4502C5 12.8979 5.44772 12.4502 6 12.4502Z" fill="rgb(162,89,255)" fill-rule="evenodd" />
			<path id="Vector (Stroke)" d="M3 5C3 4.44772 3.44772 4 4 4L28 4C28.5523 4 29 4.44772 29 5C29 5.55228 28.5523 6 28 6L4 6C3.44772 6 3 5.55228 3 5Z" fill="rgb(162,89,255)" fill-rule="evenodd" />
			<path id="Vector (Stroke)" d="M4 7C4.55228 7 5 7.44772 5 8L5 10C5 10.7956 5.31607 11.5587 5.87868 12.1213C6.44129 12.6839 7.20435 13 8 13C8.79565 13 9.55871 12.6839 10.1213 12.1213C10.6839 11.5587 11 10.7956 11 10L11 8C11 7.44772 11.4477 7 12 7C12.5523 7 13 7.44772 13 8L13 10C13 11.3261 12.4732 12.5979 11.5355 13.5355C10.5979 14.4732 9.32608 15 8 15C6.67392 15 5.40215 14.4732 4.46447 13.5355C3.52678 12.5979 3 11.3261 3 10L3 8C3 7.44772 3.44772 7 4 7Z" fill="rgb(162,89,255)" fill-rule="evenodd" />
			<path id="Vector (Stroke)" d="M12 7C12.5523 7 13 7.44772 13 8L13 10C13 10.7956 13.3161 11.5587 13.8787 12.1213C14.4413 12.6839 15.2044 13 16 13C16.7956 13 17.5587 12.6839 18.1213 12.1213C18.6839 11.5587 19 10.7956 19 10L19 8C19 7.44772 19.4477 7 20 7C20.5523 7 21 7.44772 21 8L21 10C21 11.3261 20.4732 12.5979 19.5355 13.5355C18.5979 14.4732 17.3261 15 16 15C14.6739 15 13.4021 14.4732 12.4645 13.5355C11.5268 12.5979 11 11.3261 11 10L11 8C11 7.44772 11.4477 7 12 7Z" fill="rgb(162,89,255)" fill-rule="evenodd" />
			<path id="Vector (Stroke)" d="M20 7C20.5523 7 21 7.44772 21 8L21 10C21 10.7956 21.3161 11.5587 21.8787 12.1213C22.4413 12.6839 23.2044 13 24 13C24.7956 13 25.5587 12.6839 26.1213 12.1213C26.6839 11.5587 27 10.7956 27 10L27 8C27 7.44772 27.4477 7 28 7C28.5523 7 29 7.44772 29 8L29 10C29 11.3261 28.4732 12.5979 27.5355 13.5355C26.5979 14.4732 25.3261 15 24 15C22.6739 15 21.4021 14.4732 20.4645 13.5355C19.5268 12.5979 19 11.3261 19 10L19 8C19 7.44772 19.4477 7 20 7Z" fill="rgb(162,89,255)" fill-rule="evenodd" />
		</g>
		<path id="NFT Marketplace" d="M51.48 22.5476L51.876 22.5476L51.876 8.59961L54.78 8.59961L54.78 23.9996L49.104 23.9996L47.3 10.0516L46.904 10.0516L46.904 23.9996L44 23.9996L44 8.59961L49.676 8.59961L51.48 22.5476ZM58.0647 8.59961L67.9207 8.59961L67.9207 11.3716L60.9687 11.3716L60.9687 14.8916L67.7887 14.8916L67.7887 17.6636L60.9687 17.6636L60.9687 23.9996L58.0647 23.9996L58.0647 8.59961ZM70.7874 8.59961L81.8754 8.59961L81.8754 11.3716L77.7834 11.3716L77.7834 23.9996L74.8794 23.9996L74.8794 11.3716L70.7874 11.3716L70.7874 8.59961ZM97.0248 8.59961L102.129 8.59961L103.009 20.1716L103.009 22.4156L103.537 22.4156L103.537 20.1716L104.417 8.59961L109.521 8.59961L109.521 23.9996L106.881 23.9996L106.881 13.7036L107.145 10.1836L106.617 10.1836L105.473 23.9996L101.117 23.9996L99.9288 10.1836L99.4008 10.1836L99.6648 13.7036L99.6648 23.9996L97.0248 23.9996L97.0248 8.59961ZM142.321 17.0916L142.849 17.0916L145.753 13.0876L148.789 13.0876L148.789 13.2196L145.269 18.2136L145.269 18.6096L149.141 23.8676L149.141 23.9996L145.973 23.9996L142.849 19.7316L142.321 19.7316L142.321 23.9996L139.549 23.9996L139.549 8.59961L142.321 8.59961L142.321 17.0916ZM165.302 13.0876L168.536 13.0876L168.536 8.59961L171.308 8.59961L171.308 13.0876L175.246 13.0876L175.246 15.7276L171.308 15.7276L171.308 20.6996C171.308 21.1396 171.506 21.3596 171.902 21.3596L174.85 21.3596L174.85 23.9996L170.23 23.9996C169.732 23.9996 169.321 23.8383 168.998 23.5156C168.69 23.1929 168.536 22.7823 168.536 22.2836L168.536 15.7276L165.302 15.7276L165.302 13.0876ZM192.486 21.3596L196.314 21.3596L196.314 11.2396L192.618 11.2396L192.618 8.59961L199.086 8.59961L199.086 21.3596L202.65 21.3596L202.65 23.9996L192.486 23.9996L192.486 21.3596ZM118.79 22.4156Q118.366 23.4118 117.615 23.8567Q117.586 23.8735 117.558 23.8896C117.03 24.1683 116.414 24.3076 115.71 24.3076C115.05 24.3076 114.426 24.1829 113.84 23.9336C113.268 23.6843 112.762 23.3176 112.322 22.8336C111.882 22.3496 111.53 21.7629 111.266 21.0736C111.016 20.3843 110.892 19.5996 110.892 18.7196L110.892 18.3676C110.892 17.5023 111.016 16.7249 111.266 16.0356Q111.64 15.0016 112.278 14.2756Q112.783 13.7004 113.413 13.3462L113.414 13.3457Q113.578 13.2531 113.752 13.1756C114.324 12.9116 114.932 12.7796 115.578 12.7796C116.355 12.7796 116.978 12.9116 117.448 13.1756C117.932 13.4396 118.313 13.8503 118.592 14.4076L118.988 14.4076L118.988 13.0876L121.76 13.0876L121.76 20.6996C121.76 21.1396 121.958 21.3596 122.354 21.3596L122.772 21.3596L122.772 23.9996L120.88 23.9996C120.381 23.9996 119.97 23.8529 119.648 23.5596C119.34 23.2663 119.186 22.8849 119.186 22.4156L118.79 22.4156ZM124.67 13.0876L129.29 13.0876L129.29 14.6716L129.686 14.6716C129.892 14.0703 130.236 13.6083 130.72 13.2856C131.219 12.9483 131.813 12.7796 132.502 12.7796C133.588 12.7796 134.46 13.1243 135.12 13.8136C135.78 14.4883 136.11 15.5223 136.11 16.9156L136.11 17.3996L133.25 17.6636L133.25 17.3556C133.25 16.7543 133.096 16.2776 132.788 15.9256C132.48 15.5589 132.018 15.3756 131.402 15.3756C130.786 15.3756 130.302 15.5883 129.95 16.0136C129.598 16.4389 129.422 17.0476 129.422 17.8396L129.422 21.3596L131.93 21.3596L131.93 23.9996L124.406 23.9996L124.406 21.3596L126.65 21.3596L126.65 15.7276L124.67 15.7276L124.67 13.0876ZM154.582 19.4456Q154.599 19.8301 154.728 20.173Q154.761 20.2617 154.802 20.3476Q154.852 20.4387 154.91 20.5252L154.91 20.5257Q155.103 20.8147 155.374 21.0516C155.623 21.2423 155.902 21.3963 156.21 21.5136Q156.255 21.5282 156.302 21.5414Q156.744 21.6676 157.222 21.6676C157.911 21.6676 158.439 21.5503 158.806 21.3156Q159.356 20.9416 159.598 20.4356L161.974 21.7556Q161.776 22.1736 161.424 22.6356C161.189 22.9289 160.881 23.2003 160.5 23.4496C160.133 23.6989 159.678 23.9043 159.136 24.0656C158.608 24.2269 157.984 24.3076 157.266 24.3076Q156.034 24.3076 155.022 23.9116C154.347 23.6476 153.76 23.2663 153.262 22.7676Q152.536 22.0196 152.118 20.9416C151.854 20.2229 151.722 19.4089 151.722 18.4996L151.722 18.3676C151.722 17.5316 151.861 16.7689 152.14 16.0796C152.433 15.3903 152.829 14.8036 153.328 14.3196C153.826 13.8356 154.406 13.4616 155.066 13.1976C155.74 12.9189 156.459 12.7796 157.222 12.7796C158.16 12.7796 158.967 12.9483 159.642 13.2856C160.316 13.6083 160.874 14.0263 161.314 14.5396C161.754 15.0383 162.076 15.5956 162.282 16.2116C162.487 16.8129 162.59 17.3996 162.59 17.9716L162.59 19.4456L154.582 19.4456ZM181.281 28.3996L178.509 28.3996L178.509 13.0876L181.281 13.0876L181.281 14.6716L181.677 14.6716C181.97 14.0703 182.396 13.6083 182.953 13.2856C183.51 12.9483 184.222 12.7796 185.087 12.7796C185.732 12.7796 186.341 12.9043 186.913 13.1536C187.5 13.4029 188.006 13.7696 188.431 14.2536C188.871 14.7229 189.216 15.3023 189.465 15.9916C189.729 16.6809 189.861 17.4656 189.861 18.3456L189.861 18.7416C189.861 19.6363 189.736 20.4283 189.487 21.1176C189.238 21.8069 188.9 22.3936 188.475 22.8776C188.05 23.3469 187.544 23.7063 186.957 23.9556C186.385 24.1903 185.762 24.3076 185.087 24.3076C184.588 24.3076 184.156 24.2563 183.789 24.1536C183.422 24.0509 183.1 23.9116 182.821 23.7356C182.557 23.5596 182.33 23.3616 182.139 23.1416C181.963 22.9069 181.809 22.6649 181.677 22.4156L181.281 22.4156L181.281 28.3996ZM213.084 22.4156C212.791 23.1049 212.38 23.5963 211.852 23.8896C211.324 24.1683 210.708 24.3076 210.004 24.3076C209.344 24.3076 208.721 24.1829 208.134 23.9336C207.562 23.6843 207.056 23.3176 206.616 22.8336C206.176 22.3496 205.824 21.7629 205.56 21.0736Q205.186 20.0396 205.186 18.7196L205.186 18.3676Q205.186 17.0696 205.56 16.0356C205.81 15.3463 206.147 14.7596 206.572 14.2756Q207.078 13.7005 207.708 13.3462Q207.873 13.2533 208.046 13.1756C208.618 12.9116 209.227 12.7796 209.872 12.7796C210.65 12.7796 211.273 12.9116 211.742 13.1756Q211.866 13.2428 211.98 13.3228L211.982 13.324Q212.54 13.7147 212.886 14.4076L213.282 14.4076L213.282 13.0876L216.054 13.0876L216.054 20.6996Q216.054 21.0642 216.236 21.2274Q216.383 21.3596 216.648 21.3596L217.066 21.3596L217.066 23.9996L215.174 23.9996C214.676 23.9996 214.265 23.8529 213.942 23.5596C213.634 23.2663 213.48 22.8849 213.48 22.4156L213.084 22.4156ZM230.141 19.9956C229.892 21.2863 229.298 22.3276 228.359 23.1196Q228.299 23.1709 228.238 23.2201L228.237 23.2206Q226.872 24.3076 224.641 24.3076C223.834 24.3076 223.079 24.1829 222.375 23.9336C221.686 23.6843 221.084 23.3249 220.571 22.8556Q220.494 22.7852 220.42 22.7115Q219.757 22.0481 219.361 21.1176Q218.921 20.0836 218.921 18.7636L218.921 18.4996Q218.921 17.1796 219.361 16.1236Q219.75 15.1906 220.396 14.4981L220.396 14.4979L220.397 14.4974Q220.482 14.4064 220.571 14.3196C221.099 13.8209 221.708 13.4396 222.397 13.1756Q222.503 13.1361 222.609 13.1005Q223.572 12.7796 224.641 12.7796C226.166 12.7796 227.398 13.1756 228.337 13.9676Q228.868 14.4085 229.253 14.9524Q229.906 15.8741 230.141 17.0916L227.413 17.7956C227.325 17.1503 227.046 16.5929 226.577 16.1236C226.108 15.6543 225.448 15.4196 224.597 15.4196C224.201 15.4196 223.827 15.4929 223.475 15.6396C223.123 15.7863 222.815 15.9989 222.551 16.2776C222.287 16.5416 222.074 16.8716 221.913 17.2676Q221.693 17.8396 221.693 18.5656L221.693 18.6976Q221.693 19.4236 221.913 19.9956C222.074 20.3623 222.287 20.6703 222.551 20.9196C222.815 21.1689 223.123 21.3596 223.475 21.4916C223.827 21.6089 224.201 21.6676 224.597 21.6676C225.448 21.6676 226.093 21.4549 226.533 21.0296Q226.612 20.956 226.684 20.8765Q227.238 20.2672 227.413 19.3136L230.141 19.9956ZM235.406 19.4456Q235.423 19.8302 235.552 20.1731Q235.585 20.2617 235.626 20.3476C235.773 20.6116 235.963 20.8463 236.198 21.0516C236.447 21.2423 236.726 21.3963 237.034 21.5136C237.357 21.6163 237.694 21.6676 238.046 21.6676C238.735 21.6676 239.263 21.5503 239.63 21.3156C239.997 21.0663 240.261 20.7729 240.422 20.4356L242.798 21.7556Q242.6 22.1736 242.248 22.6356C242.013 22.9289 241.705 23.2003 241.324 23.4496C240.957 23.6989 240.503 23.9043 239.96 24.0656Q239.168 24.3076 238.09 24.3076C237.269 24.3076 236.521 24.1756 235.846 23.9116C235.171 23.6476 234.585 23.2663 234.086 22.7676Q233.36 22.0196 232.942 20.9416C232.678 20.2229 232.546 19.4089 232.546 18.4996L232.546 18.3676C232.546 17.5316 232.685 16.7689 232.964 16.0796C233.257 15.3903 233.653 14.8036 234.152 14.3196C234.651 13.8356 235.23 13.4616 235.89 13.1976C236.565 12.9189 237.283 12.7796 238.046 12.7796C238.985 12.7796 239.791 12.9483 240.466 13.2856C241.141 13.6083 241.698 14.0263 242.138 14.5396C242.578 15.0383 242.901 15.5956 243.106 16.2116C243.311 16.8129 243.414 17.3996 243.414 17.9716L243.414 19.4456L235.406 19.4456ZM157.2 15.2876C156.496 15.2876 155.924 15.4709 155.484 15.8376C155.044 16.1896 154.758 16.6003 154.626 17.0696L159.774 17.0696C159.686 16.5563 159.407 16.1309 158.938 15.7936C158.483 15.4563 157.904 15.2876 157.2 15.2876ZM238.024 15.2876C237.32 15.2876 236.748 15.4709 236.308 15.8376C235.868 16.1896 235.582 16.6003 235.45 17.0696L240.598 17.0696C240.51 16.5563 240.231 16.1309 239.762 15.7936C239.307 15.4563 238.728 15.2876 238.024 15.2876ZM116.326 21.6676Q117.148 21.6676 117.747 21.3016Q118.029 21.1292 118.262 20.8756C118.746 20.3329 118.988 19.5996 118.988 18.6756L118.988 18.4116C118.988 17.4876 118.746 16.7616 118.262 16.2336Q118.01 15.9511 117.699 15.7667Q117.116 15.4196 116.326 15.4196C115.519 15.4196 114.874 15.6909 114.39 16.2336C113.906 16.7616 113.664 17.4876 113.664 18.4116L113.664 18.6756C113.664 19.5996 113.906 20.3329 114.39 20.8756C114.874 21.4036 115.519 21.6676 116.326 21.6676ZM184.185 21.6676C185.05 21.6676 185.747 21.4036 186.275 20.8756Q186.437 20.7136 186.567 20.529Q187.089 19.7858 187.089 18.6756L187.089 18.4116C187.089 17.4876 186.818 16.7616 186.275 16.2336C185.747 15.6909 185.05 15.4196 184.185 15.4196C183.32 15.4196 182.616 15.6983 182.073 16.2556C181.545 16.7983 181.281 17.5169 181.281 18.4116L181.281 18.6756C181.281 19.5703 181.545 20.2963 182.073 20.8536C182.616 21.3963 183.32 21.6676 184.185 21.6676ZM210.62 21.6676C211.427 21.6676 212.072 21.4036 212.556 20.8756C213.04 20.3329 213.282 19.5996 213.282 18.6756L213.282 18.4116C213.282 17.4876 213.04 16.7616 212.556 16.2336C212.072 15.6909 211.427 15.4196 210.62 15.4196C209.814 15.4196 209.168 15.6909 208.684 16.2336C208.2 16.7616 207.958 17.4876 207.958 18.4116L207.958 18.6756C207.958 19.5996 208.2 20.3329 208.684 20.8756C209.168 21.4036 209.814 21.6676 210.62 21.6676Z" fill="rgb(255,255,255)" fill-rule="evenodd" />
	</g>
</svg>
